<?xml version="1.0" encoding="UTF-8"?>
<svg xmlns="http://www.w3.org/2000/svg" role="img" aria-label="agent-guardrails plan output" viewBox="0 0 980 688" width="980" height="688">
  <defs>
    <linearGradient id="bg" x1="0" y1="0" x2="1" y2="1">
      <stop offset="0" stop-color="#0a0f1f"/>
      <stop offset="0.55" stop-color="#111827"/>
      <stop offset="1" stop-color="#051018"/>
    </linearGradient>
    <filter id="shadow" x="-20%" y="-20%" width="140%" height="140%">
      <feDropShadow dx="0" dy="20" stdDeviation="22" flood-color="#020617" flood-opacity="0.45"/>
    </filter>
  </defs>
  <rect width="100%" height="100%" rx="28" fill="#020617"/>
  <rect x="16" y="16" width="948" height="656" rx="22" fill="url(#bg)" stroke="#243044" filter="url(#shadow)"/>
  <circle cx="48" cy="48" r="7" fill="#ff6b6b"/>
  <circle cx="72" cy="48" r="7" fill="#ffd166"/>
  <circle cx="96" cy="48" r="7" fill="#4ade80"/>
  <text x="128" y="54" fill="#94a3b8" font-family="ui-monospace, SFMono-Regular, Menlo, Consolas, monospace" font-size="15">agent-guardrails plan --task &quot;Add input validation&quot;</text>
  <g font-family="ui-monospace, SFMono-Regular, Menlo, Consolas, monospace" font-size="15">
<text x="34" y="86" fill="#d8dee9"># Agent Guardrails Task Brief</text>
<text x="34" y="108" fill="#d8dee9"></text>
<text x="34" y="130" fill="#f8fafc">Task:</text>
<text x="34" y="152" fill="#d8dee9">Add input validation to add</text>
<text x="34" y="174" fill="#d8dee9"></text>
<text x="34" y="196" fill="#d8dee9">Preset:</text>
<text x="34" y="218" fill="#d8dee9">generic</text>
<text x="34" y="240" fill="#d8dee9"></text>
<text x="34" y="262" fill="#d8dee9">Read before writing:</text>
<text x="34" y="284" fill="#b7c2d0">- AGENTS.md</text>
<text x="34" y="306" fill="#b7c2d0">- README.md (if it exists)</text>
<text x="34" y="328" fill="#d8dee9"></text>
<text x="34" y="350" fill="#d8dee9">Constraints:</text>
<text x="34" y="372" fill="#b7c2d0">- Keep changes bounded and reviewable.</text>
<text x="34" y="394" fill="#b7c2d0">- Prefer modifying existing files over creating new ones.</text>
<text x="34" y="416" fill="#b7c2d0">- Match existing project conventions.</text>
<text x="34" y="438" fill="#d8dee9"></text>
<text x="34" y="460" fill="#d8dee9">Definition of done:</text>
<text x="34" y="482" fill="#b7c2d0">- The change stays within the configured file budget.</text>
<text x="34" y="504" fill="#b7c2d0">- Project state is still accurate after meaningful work.</text>
<text x="34" y="526" fill="#d8dee9"></text>
<text x="34" y="548" fill="#f8fafc">Task contract:</text>
<text x="34" y="570" fill="#b7c2d0">- Written to .agent-guardrails/task-contract.json</text>
<text x="34" y="592" fill="#b7c2d0">- Auto-filled from preset defaults: security requirements, dependency requirements, performance requirements, understanding requirements, continuity requirements</text>
<text x="34" y="614" fill="#b7c2d0">- Contract source: preset-defaults</text>
<text x="34" y="636" fill="#b7c2d0">- Session ID: rust-plan-11756-1777184140172</text>
  </g>
</svg>
